<svg width="33" height="24" viewBox="0 0 22 16" xmlns="http://www.w3.org/2000/svg">
<path d="M10.6668 0H0V14.2221H1.77792C1.77792 12.5068 3.17361 11.1112 4.88882 11.1112C6.60441 11.1112 8.00009 12.5069 8.00009 14.2221H10.6668V0Z" fill="auto"/>
<path d="M18.6669 14.2223C18.6669 15.2042 17.8709 16.0002 16.889 16.0002C15.9072 16.0002 15.111 15.2042 15.111 14.2223C15.111 13.2405 15.9072 12.4443 16.889 12.4443C17.8709 12.4443 18.6669 13.2405 18.6669 14.2223Z" fill="auto"/>
<path d="M6.66674 14.2219C6.66674 15.2038 5.87173 15.9998 4.88881 15.9998C3.90609 15.9998 3.11127 15.2038 3.11127 14.2219C3.11127 13.2399 3.90628 12.4443 4.88881 12.4443C5.87173 12.4443 6.66674 13.2401 6.66674 14.2219Z" fill="auto"/>
<path d="M20.5521 6.48536L17.6224 3.55566H12.4447V14.2225H13.7781C13.7781 12.5072 15.1738 11.1116 16.889 11.1116C18.6046 11.1116 20.0003 12.5072 20.0003 14.2225H21.3336V8.37096C21.3336 7.6349 21.0349 6.96823 20.5524 6.48532L20.5521 6.48536Z" fill="auto"/>
</svg>
